<?xml version="1.0" encoding="UTF-8"?>
<svg width="16px" height="20px" viewBox="0 0 16 20" version="1.1" xmlns="http://www.w3.org/2000/svg" xmlns:xlink="http://www.w3.org/1999/xlink">
    <title>Locator-Pin-Mobile</title>
    <g id="Guides" stroke="none" stroke-width="1" fill="none" fill-rule="evenodd">
        <g id="*Guides/Styles" transform="translate(-99.000000, -3053.000000)" fill-rule="nonzero" stroke="#000000" stroke-width="0.5">
            <g id="WISMO-location-Copy" transform="translate(100.000000, 3053.000000)">
                <g id="noun_1265684">
                    <path d="M7.17948718,0.253102564 C3.21741026,0.253102564 0,3.47051282 0,7.43258974 C0,8.84874359 0.329,9.82105641 1.06569231,10.910159 L6.96312821,19.6281077 C7.01019652,19.7020887 7.09180247,19.7468913 7.17948718,19.7468913 C7.26717189,19.7468913 7.34877784,19.7020887 7.39584615,19.6281077 L13.2932821,10.910159 C14.03,9.82103077 14.3589744,8.84874359 14.3589744,7.43258974 C14.3589744,3.47051282 11.1415641,0.253102564 7.17948718,0.253102564 Z M7.17948718,0.765923077 C10.8644359,0.765923077 13.8461538,3.74764103 13.8461538,7.43258974 C13.8461538,8.77248718 13.5605897,9.58692821 12.8605641,10.6216974 L7.17948718,19.0191333 L1.49841026,10.6216974 C0.798384615,9.58692821 0.512820513,8.77248718 0.512820513,7.43258974 C0.512820513,3.74764103 3.49453846,0.765923077 7.17948718,0.765923077 Z M7.17948718,3.84284615 C5.34158974,3.84284615 3.84615385,5.33828205 3.84615385,7.17617949 C3.84615385,9.01407692 5.3415641,10.5095179 7.17948718,10.5095179 C9.01741026,10.5095179 10.5128205,9.01407692 10.5128205,7.17617949 C10.5128205,5.33828205 9.01738462,3.84284615 7.17948718,3.84284615 Z M7.17948718,4.35566667 C8.74025641,4.35566667 10,5.61541026 10,7.17617949 C10,8.73692308 8.74023077,9.99669744 7.17948718,9.99669744 C5.61874359,9.99669744 4.35897436,8.73692308 4.35897436,7.17617949 C4.35897436,5.61541026 5.61871795,4.35566667 7.17948718,4.35566667 Z" id="Shape"></path>
                </g>
            </g>
        </g>
    </g>
</svg>
