<?xml version="1.0" encoding="UTF-8"?>
<svg width="24px" height="31px" viewBox="0 0 24 31" version="1.1" xmlns="http://www.w3.org/2000/svg" xmlns:xlink="http://www.w3.org/1999/xlink">
    <title>Locator-Pin-Large</title>
    <g id="Exterior-Pages" stroke="none" stroke-width="1" fill="none" fill-rule="evenodd">
        <g id="Middle-Location" transform="translate(-1665.000000, -697.000000)" fill="#000000" fill-rule="nonzero" stroke="#000000" stroke-width="0.568181818">
            <g id="Locator-Pin-Large" transform="translate(1666.000000, 697.000000)">
                <g id="WISMO-location">
                    <g id="noun_1265684">
                        <path d="M11.0169231,0.392308974 C4.93711604,0.392308974 0,5.37929487 0,11.5205141 C0,13.7155526 0.5048505,15.2226374 1.63530485,16.9107464 L10.6849202,30.4235669 C10.7571466,30.5382374 10.8823709,30.6076815 11.0169231,30.6076815 C11.1514753,30.6076815 11.2766996,30.5382374 11.3489259,30.4235669 L20.3985413,16.9107464 C21.529035,15.2225977 22.0338462,13.7155526 22.0338462,11.5205141 C22.0338462,5.37929487 17.0967301,0.392308974 11.0169231,0.392308974 Z" id="Path"></path>
                        <path d="M11.0169231,1.18718077 C16.6714769,1.18718077 21.2469231,5.80884359 21.2469231,11.5205141 C21.2469231,13.5973551 20.808725,14.8597387 19.7345356,16.463631 L11.0169231,29.4796567 L2.29931054,16.463631 C1.22512119,14.8597387 0.786923077,13.5973551 0.786923077,11.5205141 C0.786923077,5.80884359 5.36236927,1.18718077 11.0169231,1.18718077 Z" id="Path"></path>
                    </g>
                </g>
            </g>
        </g>
    </g>
</svg>